<mxfile host="app.diagrams.net" modified="2023-09-11T14:47:11.239Z" agent="Mozilla/5.0 (X11; Linux x86_64) AppleWebKit/537.36 (KHTML, like Gecko) Chrome/116.0.0.0 Safari/537.36" version="21.7.2" etag="FvSTVRo7FGmGeXL4yW4i" type="github">
  <diagram name="Page-1" id="v9BMMdcnteGttIf7CCQl">
    <mxGraphModel>
      <root>
        <mxCell id="0" />
        <mxCell id="1" parent="0" />
      </root>
    </mxGraphModel>
  </diagram>
</mxfile>
